<svg xmlns="http://www.w3.org/2000/svg" width="30" height="30"><path stroke="transparent" opacity=".502" fill="none" d="M15.498.499c8.285 0 15 6.716 15 15 0 8.284-6.715 15-15 15-8.284 0-15-6.716-15-15 0-8.284 6.716-15 15-15z"/><path fill-rule="evenodd" fill="#FFF" d="M19.553 23.92h-7.1c-2.233 0-4.003-2.093-4.003-4.665v-7.7c0-2.573 1.77-4.666 4.003-4.666h7.1c2.431 0 4.409 2.093 4.409 4.666v7.7c0 2.572-1.978 4.665-4.409 4.665zm3.086-12.365c0-1.801-1.384-3.266-3.086-3.266h-7.1c-1.702 0-3.086 1.465-3.086 3.266v7.7c0 2.305 1.384 3.265 3.086 3.265h7.1c1.702 0 3.086-.96 3.086-3.265v-7.7zm-2.271.351c-.584 0-1.058-.502-1.058-1.12 0-.619.474-1.12 1.058-1.12.585 0 1.059.501 1.059 1.12 0 .618-.474 1.12-1.059 1.12zM16.7 19.779c-2.861 0-4.45-1.92-4.45-4.281 0-2.36 1.589-4.281 4.45-4.281 1.6 0 3.415 1.921 3.415 4.281 0 2.361-1.815 4.281-3.415 4.281zm0-7.092c-2.095 0-3.287 1.261-3.287 2.811 0 1.982 1.192 2.811 3.287 2.811.835 0 2.026-.829 2.026-2.811 0-1.55-1.191-2.811-2.026-2.811z"/></svg>