<svg xmlns="http://www.w3.org/2000/svg" width="30" height="30"><path stroke="transparent" opacity=".502" fill="none" d="M15.499.499c8.284 0 14.999 6.716 14.999 15 0 8.284-6.715 15-14.999 15-8.285 0-15.001-6.716-15.001-15 0-8.284 6.716-15 15.001-15z"/><path fill-rule="evenodd" fill="#FFF" d="M21.979 9.207H9.708c-1.281 0-2.329 1.078-2.329 2.396v7.211c0 1.317 1.048 2.395 2.329 2.395h12.271c1.282 0 2.329-1.078 2.329-2.395v-7.211c0-1.318-1.047-2.396-2.329-2.396zm-7.825 8.618v-5.203l4.381 2.604-4.381 2.599z"/></svg>